<mxfile host="app.diagrams.net" modified="2023-11-12T13:42:01.367Z" agent="Mozilla/5.0 (Macintosh; Intel Mac OS X 10_15_7) AppleWebKit/537.36 (KHTML, like Gecko) Chrome/119.0.0.0 Safari/537.36" etag="kAaYiieTUoDYPvfZAETw" version="22.1.0" type="device">
  <diagram name="第 1 页" id="mewFzCC0TZgcuj0h6tfg">
    <mxGraphModel dx="2074" dy="1156" grid="1" gridSize="10" guides="1" tooltips="1" connect="1" arrows="1" fold="1" page="1" pageScale="1" pageWidth="827" pageHeight="1169" math="0" shadow="0">
      <root>
        <mxCell id="0" />
        <mxCell id="1" parent="0" />
        <mxCell id="DPESvmC-J-inmPmp1GLv-3" style="edgeStyle=orthogonalEdgeStyle;rounded=0;orthogonalLoop=1;jettySize=auto;html=1;exitX=1;exitY=0;exitDx=0;exitDy=0;entryX=0;entryY=0;entryDx=0;entryDy=0;" edge="1" parent="1" source="DPESvmC-J-inmPmp1GLv-1" target="DPESvmC-J-inmPmp1GLv-2">
          <mxGeometry relative="1" as="geometry" />
        </mxCell>
        <mxCell id="DPESvmC-J-inmPmp1GLv-4" value="&lt;font style=&quot;font-size: 14px;&quot;&gt;next&lt;/font&gt;" style="edgeLabel;html=1;align=center;verticalAlign=middle;resizable=0;points=[];" vertex="1" connectable="0" parent="DPESvmC-J-inmPmp1GLv-3">
          <mxGeometry x="-0.3713" y="-1" relative="1" as="geometry">
            <mxPoint x="14" as="offset" />
          </mxGeometry>
        </mxCell>
        <mxCell id="DPESvmC-J-inmPmp1GLv-25" style="edgeStyle=orthogonalEdgeStyle;rounded=0;orthogonalLoop=1;jettySize=auto;html=1;exitX=0;exitY=1;exitDx=0;exitDy=0;entryX=1;entryY=0.5;entryDx=0;entryDy=0;" edge="1" parent="1" source="DPESvmC-J-inmPmp1GLv-1" target="DPESvmC-J-inmPmp1GLv-19">
          <mxGeometry relative="1" as="geometry">
            <Array as="points">
              <mxPoint x="160" y="463" />
              <mxPoint x="160" y="520" />
              <mxPoint x="660" y="520" />
              <mxPoint x="660" y="445" />
            </Array>
          </mxGeometry>
        </mxCell>
        <mxCell id="DPESvmC-J-inmPmp1GLv-28" value="&lt;font style=&quot;font-size: 14px;&quot;&gt;prev&lt;/font&gt;" style="edgeLabel;html=1;align=center;verticalAlign=middle;resizable=0;points=[];" vertex="1" connectable="0" parent="DPESvmC-J-inmPmp1GLv-25">
          <mxGeometry x="0.0777" y="2" relative="1" as="geometry">
            <mxPoint x="-61" as="offset" />
          </mxGeometry>
        </mxCell>
        <mxCell id="DPESvmC-J-inmPmp1GLv-1" value="1" style="ellipse;whiteSpace=wrap;html=1;aspect=fixed;" vertex="1" parent="1">
          <mxGeometry x="180" y="420" width="50" height="50" as="geometry" />
        </mxCell>
        <mxCell id="DPESvmC-J-inmPmp1GLv-5" style="edgeStyle=orthogonalEdgeStyle;rounded=0;orthogonalLoop=1;jettySize=auto;html=1;exitX=0;exitY=1;exitDx=0;exitDy=0;entryX=1;entryY=1;entryDx=0;entryDy=0;" edge="1" parent="1" source="DPESvmC-J-inmPmp1GLv-2" target="DPESvmC-J-inmPmp1GLv-1">
          <mxGeometry relative="1" as="geometry" />
        </mxCell>
        <mxCell id="DPESvmC-J-inmPmp1GLv-6" value="&lt;font style=&quot;font-size: 14px;&quot;&gt;prev&lt;/font&gt;" style="edgeLabel;html=1;align=center;verticalAlign=middle;resizable=0;points=[];" vertex="1" connectable="0" parent="DPESvmC-J-inmPmp1GLv-5">
          <mxGeometry x="-0.3403" y="-1" relative="1" as="geometry">
            <mxPoint x="-12" as="offset" />
          </mxGeometry>
        </mxCell>
        <mxCell id="DPESvmC-J-inmPmp1GLv-20" value="&lt;font style=&quot;font-size: 14px;&quot;&gt;next&lt;/font&gt;" style="edgeStyle=orthogonalEdgeStyle;rounded=0;orthogonalLoop=1;jettySize=auto;html=1;exitX=1;exitY=0;exitDx=0;exitDy=0;entryX=0;entryY=0;entryDx=0;entryDy=0;" edge="1" parent="1" source="DPESvmC-J-inmPmp1GLv-2" target="DPESvmC-J-inmPmp1GLv-15">
          <mxGeometry relative="1" as="geometry" />
        </mxCell>
        <mxCell id="DPESvmC-J-inmPmp1GLv-2" value="2" style="ellipse;whiteSpace=wrap;html=1;aspect=fixed;" vertex="1" parent="1">
          <mxGeometry x="290" y="420" width="50" height="50" as="geometry" />
        </mxCell>
        <mxCell id="DPESvmC-J-inmPmp1GLv-13" style="edgeStyle=orthogonalEdgeStyle;rounded=0;orthogonalLoop=1;jettySize=auto;html=1;exitX=1;exitY=0;exitDx=0;exitDy=0;entryX=0;entryY=0;entryDx=0;entryDy=0;" edge="1" parent="1" source="DPESvmC-J-inmPmp1GLv-15" target="DPESvmC-J-inmPmp1GLv-18">
          <mxGeometry relative="1" as="geometry" />
        </mxCell>
        <mxCell id="DPESvmC-J-inmPmp1GLv-14" value="&lt;font style=&quot;font-size: 14px;&quot;&gt;next&lt;/font&gt;" style="edgeLabel;html=1;align=center;verticalAlign=middle;resizable=0;points=[];" vertex="1" connectable="0" parent="DPESvmC-J-inmPmp1GLv-13">
          <mxGeometry x="-0.3713" y="-1" relative="1" as="geometry">
            <mxPoint x="14" as="offset" />
          </mxGeometry>
        </mxCell>
        <mxCell id="DPESvmC-J-inmPmp1GLv-21" style="edgeStyle=orthogonalEdgeStyle;rounded=0;orthogonalLoop=1;jettySize=auto;html=1;exitX=0;exitY=1;exitDx=0;exitDy=0;entryX=1;entryY=1;entryDx=0;entryDy=0;" edge="1" parent="1" source="DPESvmC-J-inmPmp1GLv-15" target="DPESvmC-J-inmPmp1GLv-2">
          <mxGeometry relative="1" as="geometry" />
        </mxCell>
        <mxCell id="DPESvmC-J-inmPmp1GLv-31" value="&lt;font style=&quot;font-size: 14px;&quot;&gt;prev&lt;/font&gt;" style="edgeLabel;html=1;align=center;verticalAlign=middle;resizable=0;points=[];" vertex="1" connectable="0" parent="DPESvmC-J-inmPmp1GLv-21">
          <mxGeometry x="-0.3094" y="-2" relative="1" as="geometry">
            <mxPoint x="-12" as="offset" />
          </mxGeometry>
        </mxCell>
        <mxCell id="DPESvmC-J-inmPmp1GLv-15" value="3" style="ellipse;whiteSpace=wrap;html=1;aspect=fixed;" vertex="1" parent="1">
          <mxGeometry x="384.68" y="420" width="50" height="50" as="geometry" />
        </mxCell>
        <mxCell id="DPESvmC-J-inmPmp1GLv-16" style="edgeStyle=orthogonalEdgeStyle;rounded=0;orthogonalLoop=1;jettySize=auto;html=1;exitX=0;exitY=1;exitDx=0;exitDy=0;entryX=1;entryY=1;entryDx=0;entryDy=0;" edge="1" parent="1" source="DPESvmC-J-inmPmp1GLv-18" target="DPESvmC-J-inmPmp1GLv-15">
          <mxGeometry relative="1" as="geometry" />
        </mxCell>
        <mxCell id="DPESvmC-J-inmPmp1GLv-17" value="&lt;font style=&quot;font-size: 14px;&quot;&gt;prev&lt;/font&gt;" style="edgeLabel;html=1;align=center;verticalAlign=middle;resizable=0;points=[];" vertex="1" connectable="0" parent="DPESvmC-J-inmPmp1GLv-16">
          <mxGeometry x="-0.3403" y="-1" relative="1" as="geometry">
            <mxPoint x="-12" as="offset" />
          </mxGeometry>
        </mxCell>
        <mxCell id="DPESvmC-J-inmPmp1GLv-22" style="edgeStyle=orthogonalEdgeStyle;rounded=0;orthogonalLoop=1;jettySize=auto;html=1;exitX=1;exitY=0;exitDx=0;exitDy=0;entryX=0;entryY=0;entryDx=0;entryDy=0;" edge="1" parent="1" source="DPESvmC-J-inmPmp1GLv-18" target="DPESvmC-J-inmPmp1GLv-19">
          <mxGeometry relative="1" as="geometry" />
        </mxCell>
        <mxCell id="DPESvmC-J-inmPmp1GLv-29" value="&lt;font style=&quot;font-size: 14px;&quot;&gt;next&lt;/font&gt;" style="edgeLabel;html=1;align=center;verticalAlign=middle;resizable=0;points=[];" vertex="1" connectable="0" parent="DPESvmC-J-inmPmp1GLv-22">
          <mxGeometry x="-0.183" y="-1" relative="1" as="geometry">
            <mxPoint as="offset" />
          </mxGeometry>
        </mxCell>
        <mxCell id="DPESvmC-J-inmPmp1GLv-18" value="4" style="ellipse;whiteSpace=wrap;html=1;aspect=fixed;" vertex="1" parent="1">
          <mxGeometry x="494.68" y="420" width="50" height="50" as="geometry" />
        </mxCell>
        <mxCell id="DPESvmC-J-inmPmp1GLv-23" style="edgeStyle=orthogonalEdgeStyle;rounded=0;orthogonalLoop=1;jettySize=auto;html=1;exitX=0;exitY=1;exitDx=0;exitDy=0;entryX=1;entryY=1;entryDx=0;entryDy=0;" edge="1" parent="1" source="DPESvmC-J-inmPmp1GLv-19" target="DPESvmC-J-inmPmp1GLv-18">
          <mxGeometry relative="1" as="geometry" />
        </mxCell>
        <mxCell id="DPESvmC-J-inmPmp1GLv-30" value="&lt;font style=&quot;font-size: 14px;&quot;&gt;prev&lt;/font&gt;" style="edgeLabel;html=1;align=center;verticalAlign=middle;resizable=0;points=[];" vertex="1" connectable="0" parent="DPESvmC-J-inmPmp1GLv-23">
          <mxGeometry x="-0.1098" y="2" relative="1" as="geometry">
            <mxPoint as="offset" />
          </mxGeometry>
        </mxCell>
        <mxCell id="DPESvmC-J-inmPmp1GLv-24" style="edgeStyle=orthogonalEdgeStyle;rounded=0;orthogonalLoop=1;jettySize=auto;html=1;exitX=1;exitY=0;exitDx=0;exitDy=0;entryX=0;entryY=0.5;entryDx=0;entryDy=0;" edge="1" parent="1" source="DPESvmC-J-inmPmp1GLv-19" target="DPESvmC-J-inmPmp1GLv-1">
          <mxGeometry relative="1" as="geometry">
            <Array as="points">
              <mxPoint x="660" y="427" />
              <mxPoint x="660" y="380" />
              <mxPoint x="160" y="380" />
              <mxPoint x="160" y="445" />
            </Array>
          </mxGeometry>
        </mxCell>
        <mxCell id="DPESvmC-J-inmPmp1GLv-27" value="&lt;font style=&quot;font-size: 14px;&quot;&gt;next&lt;/font&gt;" style="edgeLabel;html=1;align=center;verticalAlign=middle;resizable=0;points=[];" vertex="1" connectable="0" parent="DPESvmC-J-inmPmp1GLv-24">
          <mxGeometry x="-0.0871" y="1" relative="1" as="geometry">
            <mxPoint as="offset" />
          </mxGeometry>
        </mxCell>
        <mxCell id="DPESvmC-J-inmPmp1GLv-19" value="5" style="ellipse;whiteSpace=wrap;html=1;aspect=fixed;" vertex="1" parent="1">
          <mxGeometry x="584.68" y="420" width="50" height="50" as="geometry" />
        </mxCell>
        <mxCell id="DPESvmC-J-inmPmp1GLv-56" style="edgeStyle=orthogonalEdgeStyle;rounded=0;orthogonalLoop=1;jettySize=auto;html=1;exitX=1;exitY=0;exitDx=0;exitDy=0;entryX=0;entryY=0;entryDx=0;entryDy=0;" edge="1" parent="1" source="DPESvmC-J-inmPmp1GLv-60" target="DPESvmC-J-inmPmp1GLv-64">
          <mxGeometry relative="1" as="geometry" />
        </mxCell>
        <mxCell id="DPESvmC-J-inmPmp1GLv-57" value="&lt;font style=&quot;font-size: 14px;&quot;&gt;next&lt;/font&gt;" style="edgeLabel;html=1;align=center;verticalAlign=middle;resizable=0;points=[];" vertex="1" connectable="0" parent="DPESvmC-J-inmPmp1GLv-56">
          <mxGeometry x="-0.3713" y="-1" relative="1" as="geometry">
            <mxPoint x="14" as="offset" />
          </mxGeometry>
        </mxCell>
        <mxCell id="DPESvmC-J-inmPmp1GLv-58" style="edgeStyle=orthogonalEdgeStyle;rounded=0;orthogonalLoop=1;jettySize=auto;html=1;exitX=0;exitY=1;exitDx=0;exitDy=0;entryX=1;entryY=0.5;entryDx=0;entryDy=0;" edge="1" parent="1" source="DPESvmC-J-inmPmp1GLv-60" target="DPESvmC-J-inmPmp1GLv-79">
          <mxGeometry relative="1" as="geometry">
            <Array as="points">
              <mxPoint x="740" y="463" />
              <mxPoint x="740" y="520" />
              <mxPoint x="1240" y="520" />
              <mxPoint x="1240" y="445" />
            </Array>
          </mxGeometry>
        </mxCell>
        <mxCell id="DPESvmC-J-inmPmp1GLv-59" value="&lt;font style=&quot;font-size: 14px;&quot;&gt;prev&lt;/font&gt;" style="edgeLabel;html=1;align=center;verticalAlign=middle;resizable=0;points=[];" vertex="1" connectable="0" parent="DPESvmC-J-inmPmp1GLv-58">
          <mxGeometry x="0.0777" y="2" relative="1" as="geometry">
            <mxPoint x="-61" as="offset" />
          </mxGeometry>
        </mxCell>
        <mxCell id="DPESvmC-J-inmPmp1GLv-60" value="6" style="ellipse;whiteSpace=wrap;html=1;aspect=fixed;" vertex="1" parent="1">
          <mxGeometry x="760" y="420" width="50" height="50" as="geometry" />
        </mxCell>
        <mxCell id="DPESvmC-J-inmPmp1GLv-61" style="edgeStyle=orthogonalEdgeStyle;rounded=0;orthogonalLoop=1;jettySize=auto;html=1;exitX=0;exitY=1;exitDx=0;exitDy=0;entryX=1;entryY=1;entryDx=0;entryDy=0;" edge="1" parent="1" source="DPESvmC-J-inmPmp1GLv-64" target="DPESvmC-J-inmPmp1GLv-60">
          <mxGeometry relative="1" as="geometry" />
        </mxCell>
        <mxCell id="DPESvmC-J-inmPmp1GLv-62" value="&lt;font style=&quot;font-size: 14px;&quot;&gt;prev&lt;/font&gt;" style="edgeLabel;html=1;align=center;verticalAlign=middle;resizable=0;points=[];" vertex="1" connectable="0" parent="DPESvmC-J-inmPmp1GLv-61">
          <mxGeometry x="-0.3403" y="-1" relative="1" as="geometry">
            <mxPoint x="-12" as="offset" />
          </mxGeometry>
        </mxCell>
        <mxCell id="DPESvmC-J-inmPmp1GLv-63" value="&lt;font style=&quot;font-size: 14px;&quot;&gt;next&lt;/font&gt;" style="edgeStyle=orthogonalEdgeStyle;rounded=0;orthogonalLoop=1;jettySize=auto;html=1;exitX=1;exitY=0;exitDx=0;exitDy=0;entryX=0;entryY=0;entryDx=0;entryDy=0;" edge="1" parent="1" source="DPESvmC-J-inmPmp1GLv-64" target="DPESvmC-J-inmPmp1GLv-69">
          <mxGeometry relative="1" as="geometry" />
        </mxCell>
        <mxCell id="DPESvmC-J-inmPmp1GLv-64" value="7" style="ellipse;whiteSpace=wrap;html=1;aspect=fixed;" vertex="1" parent="1">
          <mxGeometry x="870" y="420" width="50" height="50" as="geometry" />
        </mxCell>
        <mxCell id="DPESvmC-J-inmPmp1GLv-65" style="edgeStyle=orthogonalEdgeStyle;rounded=0;orthogonalLoop=1;jettySize=auto;html=1;exitX=1;exitY=0;exitDx=0;exitDy=0;entryX=0;entryY=0;entryDx=0;entryDy=0;" edge="1" parent="1" source="DPESvmC-J-inmPmp1GLv-69" target="DPESvmC-J-inmPmp1GLv-74">
          <mxGeometry relative="1" as="geometry" />
        </mxCell>
        <mxCell id="DPESvmC-J-inmPmp1GLv-66" value="&lt;font style=&quot;font-size: 14px;&quot;&gt;next&lt;/font&gt;" style="edgeLabel;html=1;align=center;verticalAlign=middle;resizable=0;points=[];" vertex="1" connectable="0" parent="DPESvmC-J-inmPmp1GLv-65">
          <mxGeometry x="-0.3713" y="-1" relative="1" as="geometry">
            <mxPoint x="14" as="offset" />
          </mxGeometry>
        </mxCell>
        <mxCell id="DPESvmC-J-inmPmp1GLv-67" style="edgeStyle=orthogonalEdgeStyle;rounded=0;orthogonalLoop=1;jettySize=auto;html=1;exitX=0;exitY=1;exitDx=0;exitDy=0;entryX=1;entryY=1;entryDx=0;entryDy=0;" edge="1" parent="1" source="DPESvmC-J-inmPmp1GLv-69" target="DPESvmC-J-inmPmp1GLv-64">
          <mxGeometry relative="1" as="geometry" />
        </mxCell>
        <mxCell id="DPESvmC-J-inmPmp1GLv-68" value="&lt;font style=&quot;font-size: 14px;&quot;&gt;prev&lt;/font&gt;" style="edgeLabel;html=1;align=center;verticalAlign=middle;resizable=0;points=[];" vertex="1" connectable="0" parent="DPESvmC-J-inmPmp1GLv-67">
          <mxGeometry x="-0.3094" y="-2" relative="1" as="geometry">
            <mxPoint x="-12" as="offset" />
          </mxGeometry>
        </mxCell>
        <mxCell id="DPESvmC-J-inmPmp1GLv-69" value="8" style="ellipse;whiteSpace=wrap;html=1;aspect=fixed;" vertex="1" parent="1">
          <mxGeometry x="964.6800000000001" y="420" width="50" height="50" as="geometry" />
        </mxCell>
        <mxCell id="DPESvmC-J-inmPmp1GLv-70" style="edgeStyle=orthogonalEdgeStyle;rounded=0;orthogonalLoop=1;jettySize=auto;html=1;exitX=0;exitY=1;exitDx=0;exitDy=0;entryX=1;entryY=1;entryDx=0;entryDy=0;" edge="1" parent="1" source="DPESvmC-J-inmPmp1GLv-74" target="DPESvmC-J-inmPmp1GLv-69">
          <mxGeometry relative="1" as="geometry" />
        </mxCell>
        <mxCell id="DPESvmC-J-inmPmp1GLv-71" value="&lt;font style=&quot;font-size: 14px;&quot;&gt;prev&lt;/font&gt;" style="edgeLabel;html=1;align=center;verticalAlign=middle;resizable=0;points=[];" vertex="1" connectable="0" parent="DPESvmC-J-inmPmp1GLv-70">
          <mxGeometry x="-0.3403" y="-1" relative="1" as="geometry">
            <mxPoint x="-12" as="offset" />
          </mxGeometry>
        </mxCell>
        <mxCell id="DPESvmC-J-inmPmp1GLv-72" style="edgeStyle=orthogonalEdgeStyle;rounded=0;orthogonalLoop=1;jettySize=auto;html=1;exitX=1;exitY=0;exitDx=0;exitDy=0;entryX=0;entryY=0;entryDx=0;entryDy=0;" edge="1" parent="1" source="DPESvmC-J-inmPmp1GLv-74" target="DPESvmC-J-inmPmp1GLv-79">
          <mxGeometry relative="1" as="geometry" />
        </mxCell>
        <mxCell id="DPESvmC-J-inmPmp1GLv-73" value="&lt;font style=&quot;font-size: 14px;&quot;&gt;next&lt;/font&gt;" style="edgeLabel;html=1;align=center;verticalAlign=middle;resizable=0;points=[];" vertex="1" connectable="0" parent="DPESvmC-J-inmPmp1GLv-72">
          <mxGeometry x="-0.183" y="-1" relative="1" as="geometry">
            <mxPoint as="offset" />
          </mxGeometry>
        </mxCell>
        <mxCell id="DPESvmC-J-inmPmp1GLv-74" value="9" style="ellipse;whiteSpace=wrap;html=1;aspect=fixed;" vertex="1" parent="1">
          <mxGeometry x="1074.68" y="420" width="50" height="50" as="geometry" />
        </mxCell>
        <mxCell id="DPESvmC-J-inmPmp1GLv-75" style="edgeStyle=orthogonalEdgeStyle;rounded=0;orthogonalLoop=1;jettySize=auto;html=1;exitX=0;exitY=1;exitDx=0;exitDy=0;entryX=1;entryY=1;entryDx=0;entryDy=0;" edge="1" parent="1" source="DPESvmC-J-inmPmp1GLv-79" target="DPESvmC-J-inmPmp1GLv-74">
          <mxGeometry relative="1" as="geometry" />
        </mxCell>
        <mxCell id="DPESvmC-J-inmPmp1GLv-76" value="&lt;font style=&quot;font-size: 14px;&quot;&gt;prev&lt;/font&gt;" style="edgeLabel;html=1;align=center;verticalAlign=middle;resizable=0;points=[];" vertex="1" connectable="0" parent="DPESvmC-J-inmPmp1GLv-75">
          <mxGeometry x="-0.1098" y="2" relative="1" as="geometry">
            <mxPoint as="offset" />
          </mxGeometry>
        </mxCell>
        <mxCell id="DPESvmC-J-inmPmp1GLv-77" style="edgeStyle=orthogonalEdgeStyle;rounded=0;orthogonalLoop=1;jettySize=auto;html=1;exitX=1;exitY=0;exitDx=0;exitDy=0;entryX=0;entryY=0.5;entryDx=0;entryDy=0;" edge="1" parent="1" source="DPESvmC-J-inmPmp1GLv-79" target="DPESvmC-J-inmPmp1GLv-60">
          <mxGeometry relative="1" as="geometry">
            <Array as="points">
              <mxPoint x="1240" y="427" />
              <mxPoint x="1240" y="380" />
              <mxPoint x="740" y="380" />
              <mxPoint x="740" y="445" />
            </Array>
          </mxGeometry>
        </mxCell>
        <mxCell id="DPESvmC-J-inmPmp1GLv-78" value="&lt;font style=&quot;font-size: 14px;&quot;&gt;next&lt;/font&gt;" style="edgeLabel;html=1;align=center;verticalAlign=middle;resizable=0;points=[];" vertex="1" connectable="0" parent="DPESvmC-J-inmPmp1GLv-77">
          <mxGeometry x="-0.0871" y="1" relative="1" as="geometry">
            <mxPoint as="offset" />
          </mxGeometry>
        </mxCell>
        <mxCell id="DPESvmC-J-inmPmp1GLv-79" value="10" style="ellipse;whiteSpace=wrap;html=1;aspect=fixed;" vertex="1" parent="1">
          <mxGeometry x="1164.6799999999998" y="420" width="50" height="50" as="geometry" />
        </mxCell>
        <mxCell id="DPESvmC-J-inmPmp1GLv-82" style="edgeStyle=orthogonalEdgeStyle;rounded=0;orthogonalLoop=1;jettySize=auto;html=1;exitX=0;exitY=1;exitDx=0;exitDy=0;entryX=1;entryY=0.5;entryDx=0;entryDy=0;" edge="1" parent="1" source="DPESvmC-J-inmPmp1GLv-84" target="DPESvmC-J-inmPmp1GLv-103">
          <mxGeometry relative="1" as="geometry">
            <Array as="points">
              <mxPoint x="300" y="843" />
              <mxPoint x="300" y="900" />
              <mxPoint x="1230" y="900" />
              <mxPoint x="1230" y="825" />
            </Array>
          </mxGeometry>
        </mxCell>
        <mxCell id="DPESvmC-J-inmPmp1GLv-83" value="&lt;font style=&quot;font-size: 14px;&quot;&gt;prev&lt;/font&gt;" style="edgeLabel;html=1;align=center;verticalAlign=middle;resizable=0;points=[];" vertex="1" connectable="0" parent="DPESvmC-J-inmPmp1GLv-82">
          <mxGeometry x="0.0777" y="2" relative="1" as="geometry">
            <mxPoint x="-61" as="offset" />
          </mxGeometry>
        </mxCell>
        <mxCell id="DPESvmC-J-inmPmp1GLv-119" style="edgeStyle=orthogonalEdgeStyle;rounded=0;orthogonalLoop=1;jettySize=auto;html=1;exitX=1;exitY=0;exitDx=0;exitDy=0;entryX=0;entryY=0;entryDx=0;entryDy=0;" edge="1" parent="1" source="DPESvmC-J-inmPmp1GLv-84" target="DPESvmC-J-inmPmp1GLv-105">
          <mxGeometry relative="1" as="geometry" />
        </mxCell>
        <mxCell id="DPESvmC-J-inmPmp1GLv-123" value="&lt;font style=&quot;font-size: 14px;&quot;&gt;next&lt;/font&gt;" style="edgeLabel;html=1;align=center;verticalAlign=middle;resizable=0;points=[];" vertex="1" connectable="0" parent="DPESvmC-J-inmPmp1GLv-119">
          <mxGeometry x="0.2115" y="-1" relative="1" as="geometry">
            <mxPoint x="-7" as="offset" />
          </mxGeometry>
        </mxCell>
        <mxCell id="DPESvmC-J-inmPmp1GLv-84" value="6" style="ellipse;whiteSpace=wrap;html=1;aspect=fixed;" vertex="1" parent="1">
          <mxGeometry x="320" y="800" width="50" height="50" as="geometry" />
        </mxCell>
        <mxCell id="DPESvmC-J-inmPmp1GLv-87" value="&lt;font style=&quot;font-size: 14px;&quot;&gt;next&lt;/font&gt;" style="edgeStyle=orthogonalEdgeStyle;rounded=0;orthogonalLoop=1;jettySize=auto;html=1;exitX=1;exitY=0;exitDx=0;exitDy=0;entryX=0;entryY=0;entryDx=0;entryDy=0;" edge="1" parent="1" source="DPESvmC-J-inmPmp1GLv-88" target="DPESvmC-J-inmPmp1GLv-93">
          <mxGeometry relative="1" as="geometry" />
        </mxCell>
        <mxCell id="DPESvmC-J-inmPmp1GLv-122" style="edgeStyle=orthogonalEdgeStyle;rounded=0;orthogonalLoop=1;jettySize=auto;html=1;exitX=0;exitY=1;exitDx=0;exitDy=0;entryX=1;entryY=1;entryDx=0;entryDy=0;" edge="1" parent="1" source="DPESvmC-J-inmPmp1GLv-88" target="DPESvmC-J-inmPmp1GLv-118">
          <mxGeometry relative="1" as="geometry" />
        </mxCell>
        <mxCell id="DPESvmC-J-inmPmp1GLv-126" value="&lt;font style=&quot;font-size: 14px;&quot;&gt;prev&lt;/font&gt;" style="edgeLabel;html=1;align=center;verticalAlign=middle;resizable=0;points=[];" vertex="1" connectable="0" parent="DPESvmC-J-inmPmp1GLv-122">
          <mxGeometry x="-0.0945" y="-2" relative="1" as="geometry">
            <mxPoint as="offset" />
          </mxGeometry>
        </mxCell>
        <mxCell id="DPESvmC-J-inmPmp1GLv-88" value="7" style="ellipse;whiteSpace=wrap;html=1;aspect=fixed;" vertex="1" parent="1">
          <mxGeometry x="830" y="800" width="50" height="50" as="geometry" />
        </mxCell>
        <mxCell id="DPESvmC-J-inmPmp1GLv-89" style="edgeStyle=orthogonalEdgeStyle;rounded=0;orthogonalLoop=1;jettySize=auto;html=1;exitX=1;exitY=0;exitDx=0;exitDy=0;entryX=0;entryY=0;entryDx=0;entryDy=0;" edge="1" parent="1" source="DPESvmC-J-inmPmp1GLv-93" target="DPESvmC-J-inmPmp1GLv-98">
          <mxGeometry relative="1" as="geometry" />
        </mxCell>
        <mxCell id="DPESvmC-J-inmPmp1GLv-90" value="&lt;font style=&quot;font-size: 14px;&quot;&gt;next&lt;/font&gt;" style="edgeLabel;html=1;align=center;verticalAlign=middle;resizable=0;points=[];" vertex="1" connectable="0" parent="DPESvmC-J-inmPmp1GLv-89">
          <mxGeometry x="-0.3713" y="-1" relative="1" as="geometry">
            <mxPoint x="14" as="offset" />
          </mxGeometry>
        </mxCell>
        <mxCell id="DPESvmC-J-inmPmp1GLv-91" style="edgeStyle=orthogonalEdgeStyle;rounded=0;orthogonalLoop=1;jettySize=auto;html=1;exitX=0;exitY=1;exitDx=0;exitDy=0;entryX=1;entryY=1;entryDx=0;entryDy=0;" edge="1" parent="1" source="DPESvmC-J-inmPmp1GLv-93" target="DPESvmC-J-inmPmp1GLv-88">
          <mxGeometry relative="1" as="geometry" />
        </mxCell>
        <mxCell id="DPESvmC-J-inmPmp1GLv-92" value="&lt;font style=&quot;font-size: 14px;&quot;&gt;prev&lt;/font&gt;" style="edgeLabel;html=1;align=center;verticalAlign=middle;resizable=0;points=[];" vertex="1" connectable="0" parent="DPESvmC-J-inmPmp1GLv-91">
          <mxGeometry x="-0.3094" y="-2" relative="1" as="geometry">
            <mxPoint x="-12" as="offset" />
          </mxGeometry>
        </mxCell>
        <mxCell id="DPESvmC-J-inmPmp1GLv-93" value="8" style="ellipse;whiteSpace=wrap;html=1;aspect=fixed;" vertex="1" parent="1">
          <mxGeometry x="924.6800000000001" y="800" width="50" height="50" as="geometry" />
        </mxCell>
        <mxCell id="DPESvmC-J-inmPmp1GLv-94" style="edgeStyle=orthogonalEdgeStyle;rounded=0;orthogonalLoop=1;jettySize=auto;html=1;exitX=0;exitY=1;exitDx=0;exitDy=0;entryX=1;entryY=1;entryDx=0;entryDy=0;" edge="1" parent="1" source="DPESvmC-J-inmPmp1GLv-98" target="DPESvmC-J-inmPmp1GLv-93">
          <mxGeometry relative="1" as="geometry" />
        </mxCell>
        <mxCell id="DPESvmC-J-inmPmp1GLv-95" value="&lt;font style=&quot;font-size: 14px;&quot;&gt;prev&lt;/font&gt;" style="edgeLabel;html=1;align=center;verticalAlign=middle;resizable=0;points=[];" vertex="1" connectable="0" parent="DPESvmC-J-inmPmp1GLv-94">
          <mxGeometry x="-0.3403" y="-1" relative="1" as="geometry">
            <mxPoint x="-12" as="offset" />
          </mxGeometry>
        </mxCell>
        <mxCell id="DPESvmC-J-inmPmp1GLv-96" style="edgeStyle=orthogonalEdgeStyle;rounded=0;orthogonalLoop=1;jettySize=auto;html=1;exitX=1;exitY=0;exitDx=0;exitDy=0;entryX=0;entryY=0;entryDx=0;entryDy=0;" edge="1" parent="1" source="DPESvmC-J-inmPmp1GLv-98" target="DPESvmC-J-inmPmp1GLv-103">
          <mxGeometry relative="1" as="geometry" />
        </mxCell>
        <mxCell id="DPESvmC-J-inmPmp1GLv-97" value="&lt;font style=&quot;font-size: 14px;&quot;&gt;next&lt;/font&gt;" style="edgeLabel;html=1;align=center;verticalAlign=middle;resizable=0;points=[];" vertex="1" connectable="0" parent="DPESvmC-J-inmPmp1GLv-96">
          <mxGeometry x="-0.183" y="-1" relative="1" as="geometry">
            <mxPoint as="offset" />
          </mxGeometry>
        </mxCell>
        <mxCell id="DPESvmC-J-inmPmp1GLv-98" value="9" style="ellipse;whiteSpace=wrap;html=1;aspect=fixed;" vertex="1" parent="1">
          <mxGeometry x="1034.68" y="800" width="50" height="50" as="geometry" />
        </mxCell>
        <mxCell id="DPESvmC-J-inmPmp1GLv-99" style="edgeStyle=orthogonalEdgeStyle;rounded=0;orthogonalLoop=1;jettySize=auto;html=1;exitX=0;exitY=1;exitDx=0;exitDy=0;entryX=1;entryY=1;entryDx=0;entryDy=0;" edge="1" parent="1" source="DPESvmC-J-inmPmp1GLv-103" target="DPESvmC-J-inmPmp1GLv-98">
          <mxGeometry relative="1" as="geometry" />
        </mxCell>
        <mxCell id="DPESvmC-J-inmPmp1GLv-100" value="&lt;font style=&quot;font-size: 14px;&quot;&gt;prev&lt;/font&gt;" style="edgeLabel;html=1;align=center;verticalAlign=middle;resizable=0;points=[];" vertex="1" connectable="0" parent="DPESvmC-J-inmPmp1GLv-99">
          <mxGeometry x="-0.1098" y="2" relative="1" as="geometry">
            <mxPoint as="offset" />
          </mxGeometry>
        </mxCell>
        <mxCell id="DPESvmC-J-inmPmp1GLv-101" style="edgeStyle=orthogonalEdgeStyle;rounded=0;orthogonalLoop=1;jettySize=auto;html=1;exitX=1;exitY=0;exitDx=0;exitDy=0;entryX=0;entryY=0.5;entryDx=0;entryDy=0;" edge="1" parent="1" source="DPESvmC-J-inmPmp1GLv-103" target="DPESvmC-J-inmPmp1GLv-84">
          <mxGeometry relative="1" as="geometry">
            <Array as="points">
              <mxPoint x="1230" y="807" />
              <mxPoint x="1230" y="760" />
              <mxPoint x="300" y="760" />
              <mxPoint x="300" y="825" />
            </Array>
          </mxGeometry>
        </mxCell>
        <mxCell id="DPESvmC-J-inmPmp1GLv-102" value="&lt;font style=&quot;font-size: 14px;&quot;&gt;next&lt;/font&gt;" style="edgeLabel;html=1;align=center;verticalAlign=middle;resizable=0;points=[];" vertex="1" connectable="0" parent="DPESvmC-J-inmPmp1GLv-101">
          <mxGeometry x="-0.0871" y="1" relative="1" as="geometry">
            <mxPoint as="offset" />
          </mxGeometry>
        </mxCell>
        <mxCell id="DPESvmC-J-inmPmp1GLv-103" value="10" style="ellipse;whiteSpace=wrap;html=1;aspect=fixed;" vertex="1" parent="1">
          <mxGeometry x="1124.6799999999998" y="800" width="50" height="50" as="geometry" />
        </mxCell>
        <mxCell id="DPESvmC-J-inmPmp1GLv-104" value="&lt;font style=&quot;font-size: 14px;&quot;&gt;next&lt;/font&gt;" style="edgeStyle=orthogonalEdgeStyle;rounded=0;orthogonalLoop=1;jettySize=auto;html=1;exitX=1;exitY=0;exitDx=0;exitDy=0;entryX=0;entryY=0;entryDx=0;entryDy=0;" edge="1" parent="1" source="DPESvmC-J-inmPmp1GLv-105" target="DPESvmC-J-inmPmp1GLv-110">
          <mxGeometry relative="1" as="geometry" />
        </mxCell>
        <mxCell id="DPESvmC-J-inmPmp1GLv-120" style="edgeStyle=orthogonalEdgeStyle;rounded=0;orthogonalLoop=1;jettySize=auto;html=1;exitX=0;exitY=1;exitDx=0;exitDy=0;entryX=1;entryY=1;entryDx=0;entryDy=0;" edge="1" parent="1" source="DPESvmC-J-inmPmp1GLv-105" target="DPESvmC-J-inmPmp1GLv-84">
          <mxGeometry relative="1" as="geometry" />
        </mxCell>
        <mxCell id="DPESvmC-J-inmPmp1GLv-124" value="&lt;font style=&quot;font-size: 14px;&quot;&gt;prev&lt;/font&gt;" style="edgeLabel;html=1;align=center;verticalAlign=middle;resizable=0;points=[];" vertex="1" connectable="0" parent="DPESvmC-J-inmPmp1GLv-120">
          <mxGeometry x="-0.1114" y="3" relative="1" as="geometry">
            <mxPoint as="offset" />
          </mxGeometry>
        </mxCell>
        <mxCell id="DPESvmC-J-inmPmp1GLv-105" value="2" style="ellipse;whiteSpace=wrap;html=1;aspect=fixed;" vertex="1" parent="1">
          <mxGeometry x="415.32" y="800" width="50" height="50" as="geometry" />
        </mxCell>
        <mxCell id="DPESvmC-J-inmPmp1GLv-106" style="edgeStyle=orthogonalEdgeStyle;rounded=0;orthogonalLoop=1;jettySize=auto;html=1;exitX=1;exitY=0;exitDx=0;exitDy=0;entryX=0;entryY=0;entryDx=0;entryDy=0;" edge="1" parent="1" source="DPESvmC-J-inmPmp1GLv-110" target="DPESvmC-J-inmPmp1GLv-115">
          <mxGeometry relative="1" as="geometry" />
        </mxCell>
        <mxCell id="DPESvmC-J-inmPmp1GLv-107" value="&lt;font style=&quot;font-size: 14px;&quot;&gt;next&lt;/font&gt;" style="edgeLabel;html=1;align=center;verticalAlign=middle;resizable=0;points=[];" vertex="1" connectable="0" parent="DPESvmC-J-inmPmp1GLv-106">
          <mxGeometry x="-0.3713" y="-1" relative="1" as="geometry">
            <mxPoint x="14" as="offset" />
          </mxGeometry>
        </mxCell>
        <mxCell id="DPESvmC-J-inmPmp1GLv-108" style="edgeStyle=orthogonalEdgeStyle;rounded=0;orthogonalLoop=1;jettySize=auto;html=1;exitX=0;exitY=1;exitDx=0;exitDy=0;entryX=1;entryY=1;entryDx=0;entryDy=0;" edge="1" parent="1" source="DPESvmC-J-inmPmp1GLv-110" target="DPESvmC-J-inmPmp1GLv-105">
          <mxGeometry relative="1" as="geometry" />
        </mxCell>
        <mxCell id="DPESvmC-J-inmPmp1GLv-109" value="&lt;font style=&quot;font-size: 14px;&quot;&gt;prev&lt;/font&gt;" style="edgeLabel;html=1;align=center;verticalAlign=middle;resizable=0;points=[];" vertex="1" connectable="0" parent="DPESvmC-J-inmPmp1GLv-108">
          <mxGeometry x="-0.3094" y="-2" relative="1" as="geometry">
            <mxPoint x="-12" as="offset" />
          </mxGeometry>
        </mxCell>
        <mxCell id="DPESvmC-J-inmPmp1GLv-110" value="3" style="ellipse;whiteSpace=wrap;html=1;aspect=fixed;" vertex="1" parent="1">
          <mxGeometry x="510.00000000000006" y="800" width="50" height="50" as="geometry" />
        </mxCell>
        <mxCell id="DPESvmC-J-inmPmp1GLv-111" style="edgeStyle=orthogonalEdgeStyle;rounded=0;orthogonalLoop=1;jettySize=auto;html=1;exitX=0;exitY=1;exitDx=0;exitDy=0;entryX=1;entryY=1;entryDx=0;entryDy=0;" edge="1" parent="1" source="DPESvmC-J-inmPmp1GLv-115" target="DPESvmC-J-inmPmp1GLv-110">
          <mxGeometry relative="1" as="geometry" />
        </mxCell>
        <mxCell id="DPESvmC-J-inmPmp1GLv-112" value="&lt;font style=&quot;font-size: 14px;&quot;&gt;prev&lt;/font&gt;" style="edgeLabel;html=1;align=center;verticalAlign=middle;resizable=0;points=[];" vertex="1" connectable="0" parent="DPESvmC-J-inmPmp1GLv-111">
          <mxGeometry x="-0.3403" y="-1" relative="1" as="geometry">
            <mxPoint x="-12" as="offset" />
          </mxGeometry>
        </mxCell>
        <mxCell id="DPESvmC-J-inmPmp1GLv-113" style="edgeStyle=orthogonalEdgeStyle;rounded=0;orthogonalLoop=1;jettySize=auto;html=1;exitX=1;exitY=0;exitDx=0;exitDy=0;entryX=0;entryY=0;entryDx=0;entryDy=0;" edge="1" parent="1" source="DPESvmC-J-inmPmp1GLv-115" target="DPESvmC-J-inmPmp1GLv-118">
          <mxGeometry relative="1" as="geometry" />
        </mxCell>
        <mxCell id="DPESvmC-J-inmPmp1GLv-114" value="&lt;font style=&quot;font-size: 14px;&quot;&gt;next&lt;/font&gt;" style="edgeLabel;html=1;align=center;verticalAlign=middle;resizable=0;points=[];" vertex="1" connectable="0" parent="DPESvmC-J-inmPmp1GLv-113">
          <mxGeometry x="-0.183" y="-1" relative="1" as="geometry">
            <mxPoint as="offset" />
          </mxGeometry>
        </mxCell>
        <mxCell id="DPESvmC-J-inmPmp1GLv-115" value="4" style="ellipse;whiteSpace=wrap;html=1;aspect=fixed;" vertex="1" parent="1">
          <mxGeometry x="620.0000000000001" y="800" width="50" height="50" as="geometry" />
        </mxCell>
        <mxCell id="DPESvmC-J-inmPmp1GLv-116" style="edgeStyle=orthogonalEdgeStyle;rounded=0;orthogonalLoop=1;jettySize=auto;html=1;exitX=0;exitY=1;exitDx=0;exitDy=0;entryX=1;entryY=1;entryDx=0;entryDy=0;" edge="1" parent="1" source="DPESvmC-J-inmPmp1GLv-118" target="DPESvmC-J-inmPmp1GLv-115">
          <mxGeometry relative="1" as="geometry" />
        </mxCell>
        <mxCell id="DPESvmC-J-inmPmp1GLv-117" value="&lt;font style=&quot;font-size: 14px;&quot;&gt;prev&lt;/font&gt;" style="edgeLabel;html=1;align=center;verticalAlign=middle;resizable=0;points=[];" vertex="1" connectable="0" parent="DPESvmC-J-inmPmp1GLv-116">
          <mxGeometry x="-0.1098" y="2" relative="1" as="geometry">
            <mxPoint as="offset" />
          </mxGeometry>
        </mxCell>
        <mxCell id="DPESvmC-J-inmPmp1GLv-121" style="edgeStyle=orthogonalEdgeStyle;rounded=0;orthogonalLoop=1;jettySize=auto;html=1;exitX=1;exitY=0;exitDx=0;exitDy=0;entryX=0;entryY=0;entryDx=0;entryDy=0;" edge="1" parent="1" source="DPESvmC-J-inmPmp1GLv-118" target="DPESvmC-J-inmPmp1GLv-88">
          <mxGeometry relative="1" as="geometry" />
        </mxCell>
        <mxCell id="DPESvmC-J-inmPmp1GLv-125" value="&lt;font style=&quot;font-size: 14px;&quot;&gt;next&lt;/font&gt;" style="edgeLabel;html=1;align=center;verticalAlign=middle;resizable=0;points=[];" vertex="1" connectable="0" parent="DPESvmC-J-inmPmp1GLv-121">
          <mxGeometry x="-0.1418" y="1" relative="1" as="geometry">
            <mxPoint as="offset" />
          </mxGeometry>
        </mxCell>
        <mxCell id="DPESvmC-J-inmPmp1GLv-118" value="5" style="ellipse;whiteSpace=wrap;html=1;aspect=fixed;" vertex="1" parent="1">
          <mxGeometry x="709.9999999999999" y="800" width="50" height="50" as="geometry" />
        </mxCell>
        <mxCell id="DPESvmC-J-inmPmp1GLv-128" style="edgeStyle=orthogonalEdgeStyle;rounded=0;orthogonalLoop=1;jettySize=auto;html=1;entryX=0.5;entryY=0;entryDx=0;entryDy=0;" edge="1" parent="1" source="DPESvmC-J-inmPmp1GLv-127" target="DPESvmC-J-inmPmp1GLv-1">
          <mxGeometry relative="1" as="geometry" />
        </mxCell>
        <mxCell id="DPESvmC-J-inmPmp1GLv-127" value="&lt;font style=&quot;font-size: 14px;&quot;&gt;list&lt;/font&gt;" style="text;html=1;align=center;verticalAlign=middle;resizable=0;points=[];autosize=1;strokeColor=none;fillColor=none;" vertex="1" parent="1">
          <mxGeometry x="185" y="268" width="40" height="30" as="geometry" />
        </mxCell>
        <mxCell id="DPESvmC-J-inmPmp1GLv-130" style="edgeStyle=orthogonalEdgeStyle;rounded=0;orthogonalLoop=1;jettySize=auto;html=1;entryX=0.5;entryY=0;entryDx=0;entryDy=0;" edge="1" parent="1" source="DPESvmC-J-inmPmp1GLv-129" target="DPESvmC-J-inmPmp1GLv-60">
          <mxGeometry relative="1" as="geometry" />
        </mxCell>
        <mxCell id="DPESvmC-J-inmPmp1GLv-129" value="&lt;font style=&quot;font-size: 14px;&quot;&gt;head&lt;/font&gt;" style="text;html=1;align=center;verticalAlign=middle;resizable=0;points=[];autosize=1;strokeColor=none;fillColor=none;" vertex="1" parent="1">
          <mxGeometry x="760" y="268" width="50" height="30" as="geometry" />
        </mxCell>
        <mxCell id="DPESvmC-J-inmPmp1GLv-132" style="edgeStyle=orthogonalEdgeStyle;rounded=0;orthogonalLoop=1;jettySize=auto;html=1;entryX=0.5;entryY=0;entryDx=0;entryDy=0;" edge="1" parent="1" source="DPESvmC-J-inmPmp1GLv-131" target="DPESvmC-J-inmPmp1GLv-84">
          <mxGeometry relative="1" as="geometry" />
        </mxCell>
        <mxCell id="DPESvmC-J-inmPmp1GLv-131" value="&lt;font style=&quot;font-size: 14px;&quot;&gt;head&lt;/font&gt;" style="text;html=1;align=center;verticalAlign=middle;resizable=0;points=[];autosize=1;strokeColor=none;fillColor=none;" vertex="1" parent="1">
          <mxGeometry x="320" y="630" width="50" height="30" as="geometry" />
        </mxCell>
        <mxCell id="DPESvmC-J-inmPmp1GLv-136" style="edgeStyle=orthogonalEdgeStyle;rounded=0;orthogonalLoop=1;jettySize=auto;html=1;entryX=0.5;entryY=0;entryDx=0;entryDy=0;exitX=0;exitY=0.5;exitDx=0;exitDy=0;" edge="1" parent="1" source="DPESvmC-J-inmPmp1GLv-133" target="DPESvmC-J-inmPmp1GLv-118">
          <mxGeometry relative="1" as="geometry">
            <mxPoint x="439" y="610" as="sourcePoint" />
            <mxPoint x="735" y="725" as="targetPoint" />
            <Array as="points">
              <mxPoint x="400" y="685" />
              <mxPoint x="400" y="640" />
              <mxPoint x="735" y="640" />
            </Array>
          </mxGeometry>
        </mxCell>
        <mxCell id="DPESvmC-J-inmPmp1GLv-137" value="&lt;font style=&quot;font-size: 14px;&quot;&gt;prev&lt;/font&gt;" style="edgeLabel;html=1;align=center;verticalAlign=middle;resizable=0;points=[];" vertex="1" connectable="0" parent="DPESvmC-J-inmPmp1GLv-136">
          <mxGeometry x="-0.0895" y="-4" relative="1" as="geometry">
            <mxPoint x="-25" y="-4" as="offset" />
          </mxGeometry>
        </mxCell>
        <mxCell id="DPESvmC-J-inmPmp1GLv-138" style="edgeStyle=orthogonalEdgeStyle;rounded=0;orthogonalLoop=1;jettySize=auto;html=1;entryX=0.5;entryY=0;entryDx=0;entryDy=0;" edge="1" parent="1" source="DPESvmC-J-inmPmp1GLv-133" target="DPESvmC-J-inmPmp1GLv-105">
          <mxGeometry relative="1" as="geometry" />
        </mxCell>
        <mxCell id="DPESvmC-J-inmPmp1GLv-139" value="&lt;font style=&quot;font-size: 14px;&quot;&gt;next&lt;/font&gt;" style="edgeLabel;html=1;align=center;verticalAlign=middle;resizable=0;points=[];" vertex="1" connectable="0" parent="DPESvmC-J-inmPmp1GLv-138">
          <mxGeometry x="-0.3111" y="-2" relative="1" as="geometry">
            <mxPoint as="offset" />
          </mxGeometry>
        </mxCell>
        <mxCell id="DPESvmC-J-inmPmp1GLv-133" value="1" style="ellipse;whiteSpace=wrap;html=1;aspect=fixed;" vertex="1" parent="1">
          <mxGeometry x="415.32" y="660" width="50" height="50" as="geometry" />
        </mxCell>
        <mxCell id="DPESvmC-J-inmPmp1GLv-141" style="edgeStyle=orthogonalEdgeStyle;rounded=0;orthogonalLoop=1;jettySize=auto;html=1;entryX=0.5;entryY=0;entryDx=0;entryDy=0;" edge="1" parent="1" source="DPESvmC-J-inmPmp1GLv-140" target="DPESvmC-J-inmPmp1GLv-133">
          <mxGeometry relative="1" as="geometry" />
        </mxCell>
        <mxCell id="DPESvmC-J-inmPmp1GLv-140" value="&lt;font style=&quot;font-size: 14px;&quot;&gt;list&lt;/font&gt;" style="text;html=1;align=center;verticalAlign=middle;resizable=0;points=[];autosize=1;strokeColor=none;fillColor=none;" vertex="1" parent="1">
          <mxGeometry x="420.32" y="585" width="40" height="30" as="geometry" />
        </mxCell>
      </root>
    </mxGraphModel>
  </diagram>
</mxfile>
